# xmcd CD database file
#
# Track frame offsets:
#	150
#	19067
#	30738
#	59676
#	84806
#	116981
#	145422
#	189361
#	214763
#	251813
#	270263
#	290116
#
# Disc length: 4261 seconds
#
# Revision: 0
# Processed by: cddbd v1.5.2PL0 Copyright (c) Steve Scherf et al.
# Submitted via: CDex 1.51
#
DISCID=b410a30c
DTITLE=Karin Mast - Incurably Romantic
DYEAR=2009
DGENRE=Jazz
TTITLE0=A foggy Day In London Town
TTITLE1=Incurably Romantic
TTITLE2=Black Orpheus
TTITLE3=I Can't Get Started
TTITLE4=Never Said (Chan's Song)
TTITLE5=Breaking Up Is Hard To DO
TTITLE6=This Masquerade
TTITLE7=She Acts Like A Woman Should
TTITLE8=I'm Thru With Love
TTITLE9=Days Of Wine And Roses
TTITLE10=But Not For Me
TTITLE11=Isn't It A Pity
EXTD=YEAR: 2009
EXTT0=
EXTT1=
EXTT2=
EXTT3=
EXTT4=
EXTT5=
EXTT6=
EXTT7=
EXTT8=
EXTT9=
EXTT10=
EXTT11=
PLAYORDER=
